<?xml version="1.0" encoding="UTF-8"?>
<svg id="Calque_1" xmlns="http://www.w3.org/2000/svg" version="1.1" viewBox="0 0 26.69 26.53">
  <!-- Generator: Adobe Illustrator 29.8.3, SVG Export Plug-In . SVG Version: 2.1.1 Build 3)  -->
  <defs>
    <style>
      .st0 {
        fill: #fff;
      }
    </style>
  </defs>
  <path class="st0" d="M13.34,0C11.51,0,9.78.35,8.16,1.06c-1.63.69-3.04,1.64-4.25,2.84-1.21,1.21-2.16,2.62-2.84,4.25-.71,1.63-1.06,3.35-1.06,5.19,0,1.67.29,3.24.88,4.72.58,1.5,1.37,2.83,2.38,4,1,1.17,2.19,2.14,3.56,2.91,1.38.77,2.85,1.29,4.44,1.56v-9.34h-3.38v-3.84h3.38v-2.94c0-1.67.46-2.95,1.38-3.84s2.15-1.34,3.69-1.34c.73,0,1.41.04,2.03.12s.94.12.94.12v3.28h-1.69c-.83,0-1.4.22-1.7.66-.3.44-.45.92-.45,1.44v2.5h3.69l-.59,3.84h-3.09v9.31c1.58-.25,3.06-.76,4.44-1.53s2.57-1.74,3.58-2.91,1.8-2.5,2.36-4c.58-1.48.88-3.05.88-4.72,0-1.83-.35-3.56-1.06-5.19-.69-1.63-1.64-3.04-2.84-4.25-1.21-1.21-2.62-2.16-4.25-2.84C16.91.35,15.18,0,13.34,0Z"/>
</svg>