<svg style="" width="26.687500" height="26.531250" version="1.1" xmlns="http://www.w3.org/2000/svg">
<path d="M13.343750 -0.000000 C11.510407 -0.000000 9.781258 0.354163 8.156250 1.062500 C6.531242 1.750003 5.114589 2.697911 3.906250 3.906250 C2.697911 5.114589 1.750003 6.531242 1.062500 8.156250 C0.354163 9.781258 0.000000 11.510407 0.000000 13.343750 C0.000000 15.010425 0.291664 16.583326 0.875000 18.062500 C1.458336 19.562507 2.249995 20.895827 3.250000 22.062500 C4.250005 23.229173 5.437493 24.197913 6.812500 24.968750 C8.187507 25.739587 9.666659 26.260415 11.250000 26.531250 L11.250000 17.187500 L7.875000 17.187500 L7.875000 13.343750 L11.250000 13.343750 L11.250000 10.406250 C11.250000 8.739575 11.708329 7.458338 12.625000 6.562500 C13.541671 5.666662 14.770826 5.218750 16.312500 5.218750 C17.041670 5.218750 17.718747 5.260416 18.343750 5.343750 C18.968753 5.427084 19.281250 5.468750 19.281250 5.468750 L19.281250 8.750000 L17.593750 8.750000 C16.760413 8.750000 16.192710 8.968748 15.890625 9.406250 C15.588540 9.843752 15.437500 10.322914 15.437500 10.843750 L15.437500 13.343750 L19.125000 13.343750 L18.531250 17.187500 L15.437500 17.187500 L15.437500 26.500000 C17.020841 26.249999 18.499993 25.739587 19.875000 24.968750 C21.250007 24.197913 22.442703 23.229173 23.453125 22.062500 C24.463547 20.895827 25.249997 19.562507 25.812500 18.062500 C26.395836 16.583326 26.687500 15.010425 26.687500 13.343750 C26.687500 11.510407 26.333337 9.781258 25.625000 8.156250 C24.937497 6.531242 23.989589 5.114589 22.781250 3.906250 C21.572911 2.697911 20.156258 1.750003 18.531250 1.062500 C16.906242 0.354163 15.177093 -0.000000 13.343750 -0.000000 Z M29.343750 27.343750" style="fill:black"/>
</svg>