<svg width="317" height="362" viewBox="0 0 317 362" fill="none" xmlns="http://www.w3.org/2000/svg">
<g opacity="0.82" filter="url(#filter0_gn_94_6103)">
<g clip-path="url(#clip0_94_6103)">
<path d="M239.869 82.0989C237.583 88.5041 229.925 96.4238 223.576 99.0676C224.481 96.2146 226.866 94.0936 227.863 91.2782C231.104 82.1217 233.144 54.3771 232.418 44.2611C232.305 42.6921 232.271 41.6122 230.33 41.5096C227.429 56.3464 230.392 75.5809 225.322 89.6759C224.884 90.8829 219.839 100.62 219.043 99.0154C218.772 97.6398 220.439 96.6755 220.55 96.1536L223.682 81.384C224.446 77.7829 222.889 62.8006 222.229 58.3704C221.896 56.1274 220.164 44.9709 218.362 44.4252C216.312 43.8087 217.428 46.6449 217.468 47.2261C217.77 51.2894 219.105 55.3175 219.525 59.3786C220.741 70.9983 221.359 82.9093 218.207 94.3025C215.988 92.2139 216.155 87.8682 215.922 84.9376C215.22 75.9083 215.972 66.5784 216.029 57.5282C213.553 56.3033 213.754 59.2546 213.489 61.0617C212.275 69.3574 214.473 78.5312 213.001 86.8448C209.419 73.3145 208.829 59.1281 209.145 45.17C208.664 44.0955 208.182 43.8388 207.386 44.8062C204.008 48.9073 209.451 92.8727 214.328 99.8243C210.138 101.844 204.629 85.9601 203.792 83.0922C200.55 71.9427 200.26 60.1559 199.759 48.6334C197.565 47.7954 197.907 48.6678 197.54 50.4441C195.506 60.4202 199.783 79.4152 202.962 89.2334C201.699 90.0472 198.469 82.6542 198.021 81.5957C193.319 70.6457 191.867 57.3125 196.669 46.1511L193.928 46.1788C186.947 62.9862 193.418 82.2646 203.228 96.5521C188.116 92.8657 181.249 79.8294 179.898 65.2907C178.2 64.6851 178.494 64.8385 177.696 65.9873C175.519 69.0977 180.671 78.698 181.705 82.4802C181.772 83.1035 180.746 82.9313 180.329 82.6248C176.522 79.836 170.117 63.6346 168.859 58.5959C168.535 57.3 169.923 56.3219 167.307 56.2761C166 63.2977 171.546 75.3631 175.607 81.1962C178.699 85.6421 192.755 99.3577 197.262 102.313C198.754 103.293 200.737 103.968 202.425 104.58C201.691 106.025 197.703 105.379 196.443 105.148C188.277 103.68 184.114 99.3976 178.989 93.2297C177.627 91.5956 173.342 83.9516 172.805 83.7832C170.076 82.9408 172.787 89.4786 173.216 90.2421C180.282 102.684 192.424 111.376 207.16 107.83C210.379 107.049 212.844 104.981 215.996 104.732C211.246 120.313 201.5 133.662 194.368 148.055C172.727 191.74 182.446 249.519 158.552 292.263C157.891 293.45 157.426 294.742 156.063 295.343C157.131 278.609 156.551 262.407 153.821 245.885C153.01 240.968 147.295 220.014 147.559 217.698C147.761 215.932 151.025 212.152 151.932 209.499C157.873 192.244 149.617 176.586 156.152 160.121L153.365 160.066C150.004 165.416 147.841 171.419 146.943 177.71C145.431 188.351 149.587 199.476 146.089 209.714L126.389 137.902C126.372 136.653 126.796 136.28 127.928 136.901C132.404 139.36 136.709 144.599 141.715 146.66C150.028 150.096 161.409 149.646 167.897 143.087C166.01 139.388 165.195 142.76 163.504 143.537C156.09 146.919 146.868 146.572 139.989 142.159L155.851 137.206C160.065 135.027 164.023 132.604 166.713 128.575C167.643 127.19 173.817 115.774 170.669 115.107C168.137 117.406 167.931 121.162 166.189 124.319C161.651 132.564 147.737 139.085 138.457 138.153C136.535 137.963 131.348 137.054 132.581 134.243C135.92 137.351 156.323 130.952 154.071 127.003C151.448 126.601 149.773 129.1 147.399 129.969C143.013 131.584 133.436 133.979 129.758 130.454C148.13 130.851 160.11 115.194 164.62 98.8538C165.408 95.9942 167.902 88.8607 164.11 88.2747C161.882 105.381 151.199 126.621 131.449 126.723C147.091 119.723 154.12 101.19 150.171 84.9733C149.399 81.8009 145.851 71.5408 141.556 74.8658C151.354 87.0691 147.408 110.946 134.895 119.946C133.843 120.704 133.448 122.184 131.685 121.328C144.422 106.041 142.076 86.2106 135.954 68.7603C135.279 66.8447 130.606 53.3559 127.58 55.1137L136.45 79.6637C136.327 93.3083 139.686 101.765 133.001 114.736C132.535 115.646 131.96 117.887 130.682 117.489C133.671 109.778 135.787 101.383 134.199 93.1024C133.555 89.7571 128.774 78.7085 125.797 77.5773C119.892 75.3433 124.688 80.1507 125.332 81.269C132.364 93.5312 132.931 106.322 126.064 119.036C125.555 119.983 124.573 122.556 123.316 122.271C124.428 112.654 122.675 102.838 119.177 93.8797C117.65 89.9836 112.649 82.7603 111.926 79.8711C111.044 76.3574 114.196 69.9814 110.178 68.6568L109.558 75.7788C102.693 72.5868 108.894 78.6102 109.171 80.9048C109.823 86.315 107.82 93.9615 110.043 99.8048L116.711 119.052C113.293 121.454 102.452 87.524 104.237 83.7307C102.075 83.9446 102.156 85.2343 102.113 86.9341C101.988 91.5523 105.693 100.564 106.687 105.729C106.859 106.592 108.106 108.338 106.657 108.74C101.474 99.7601 97.9395 88.8758 97.1577 78.5935C95.7206 78.0433 95.7864 80.4751 95.7479 81.3849C95.2822 91.8935 103.596 109.509 109.679 118.016C108.057 118.253 104.458 113.5 103.277 111.695C94.5686 98.3866 91.53 78.1363 96.4546 63.056C97.7002 59.239 94.8622 61.0095 93.9199 63.7819C87.1607 83.6995 94.0362 107.281 108.741 121.625C110.051 122.903 110.519 123.484 108.325 122.646C94.2928 117.298 82.9231 98.0256 83.7072 83.2307C83.9278 79.1055 84.7781 77.7951 87.1178 74.6464L82.6047 74.5892C82.566 71.4724 83.4056 68.2419 83.6528 65.2767C83.7558 64.0623 83.6288 62.3902 82.2058 63.6155C79.7997 69.4769 81.1955 74.6357 81.1248 80.4107C81.0628 85.5876 80.1471 88.9201 81.3357 94.4986C84.4471 109.093 101.551 129.135 116.74 131.766C116.617 132.948 114.442 132.878 113.457 133.024C90.1542 136.599 78.8392 105.585 77.2066 87.0604C73.0817 85.8584 75.7206 95.053 76.1148 97.1363C79.3727 114.125 90.8667 137.995 111.534 135.834C114.378 135.537 116.309 134.056 118.973 134.048C107.325 145.739 93.9287 143.953 84.2664 130.769L79.5871 122.969C77.9586 128.077 82.5217 133.126 85.8738 136.473C96.5988 147.173 106.035 147.538 117.949 138.794C119.143 137.92 122.224 133.374 123.314 134.96C122.939 143.37 126.668 151.068 128.73 158.786C136.381 187.495 154.914 249.471 152.107 276.889C152.009 277.868 152.226 280.186 150.731 279.651C148.658 262.732 138.356 247.895 131.878 232.378C124.759 215.344 120.822 197.957 120.069 179.4L117.965 177.409C117.106 201.686 121.81 227.88 130.169 250.722C139.428 276.045 153.719 289.556 146.862 319.233C146.429 321.105 145.125 322.882 144.632 325.123C143.85 328.638 143.443 334.842 147.841 331.112C149.336 326.166 150.479 319.918 152.491 315.228C157.986 302.432 175.082 294.059 185.338 285.118C198.872 273.318 209.712 258.965 219.06 243.677L216.817 241.956C210.812 254.335 200.36 264.971 189.715 273.43C181.638 279.852 171.689 284.477 165.18 292.714L163.542 291.912C169.025 280.586 177.981 270.66 186.252 261.179C200.417 244.95 216.312 230.242 230.463 213.991C232.594 212.298 232.579 216.867 233.253 218.146C238.242 227.739 245.703 230.821 256.034 226.841C257.36 226.331 266.064 222.051 262.762 219.923C262.259 219.598 261.471 222.158 260.521 222.82C251.169 229.345 237.465 226.775 234.36 214.809C236.251 215.019 236.672 216.935 238.24 217.895C251.277 225.877 266.031 215.863 274.54 205.778C276.204 203.804 280.844 199.189 277.92 197.724C273.533 206.156 258.951 218.697 249.218 218.66C245.714 218.644 238.819 217.309 237.327 213.629C249.407 216.355 268.388 209.164 275.067 198.537C278.124 193.677 281.605 186.134 283.317 180.717C280.528 180.798 280.35 187.423 279 187.963L277.052 186.778L275.535 187.674C277.209 192.892 269.56 201.668 265.55 204.635C261.541 207.603 251.399 210.86 246.676 210.167C245.689 210.022 245.111 210.135 245.571 209.033C261.442 205.755 273.786 190.139 275.559 174.536L268.15 190.189C265.469 194.52 258.397 201.6 253.903 203.983C253.094 204.411 251.68 205.893 251.11 204.3C256.026 200.57 262.531 195.605 266.268 190.753C266.972 189.83 269.904 186.462 267.789 185.595C263.665 192.228 257.55 198.185 250.712 201.934C253.317 197.278 260.199 193.02 262.555 188.466C263.352 186.936 262.41 187.09 261.168 186.909C258.199 191.778 246.593 204.26 241.339 205.382C240.919 205.474 239.867 205.297 240.142 204.683C244.553 202.137 248.452 198.791 251.758 194.902C254.699 191.445 258.118 183.935 259.942 182.149C260.779 181.327 262.468 181.422 263.386 180.562L261.185 178.641L262.853 174.55C259.918 175.364 259.824 179.107 257.846 181.232C254.635 184.678 245.885 187.758 242.851 192.723L234.852 204.006C234.568 191.975 239.787 180.393 251.598 176.244C250.569 173.772 249.198 174.663 247.316 175.4C238.837 178.701 233.593 188.56 232.646 197.185C231.334 196.815 231.761 192.916 231.927 192.006C233.314 184.392 239.01 179.001 242.298 172.281L256.937 159.679C254.291 158.664 252.054 160.898 250.06 162.329C238.444 170.655 227.792 185.366 230.177 200.297C222.943 190.491 229.663 171.783 240.746 167.598C239.682 164.864 237.06 166.299 235.328 167.313C224.021 173.968 220.054 194.087 228.398 204.446C219.365 199.476 217.63 188.419 218.464 179.089C218.756 175.869 220.113 172.639 220.356 169.61C220.492 167.984 220.949 168.272 218.89 167.953L215.85 182.288C214.87 186.907 217.455 197.772 220.948 201.439L227.651 207.923C221.183 208.388 217.705 198.952 214.967 197.08C213.538 196.105 213.18 197.747 213.38 198.862C213.986 202.39 221.512 207.694 224.581 209.545C223.116 210.925 222.412 210.303 220.89 209.771C214.241 207.443 206.633 197.513 206.963 190.302C207.066 188.06 209.691 183.391 206.519 183.482C202.191 194.98 208.09 203.966 217.082 210.672C210.302 213.334 203.65 206.696 200.477 201.261C197.62 203.936 202.951 208.621 205.171 210.191C213.554 216.123 217.78 212.993 226.634 212.68C227.915 212.633 227.702 211.925 227.33 213.764L189.603 252.492C191.353 244.282 198.663 238.052 201.175 229.977C202.31 226.337 202.831 222.466 202.694 218.656L200.199 217.526C200.421 227.835 190.492 235.019 187.34 244.395C185.787 249.019 185.842 253.43 185.071 258.093L171.187 273.091C174.947 261.445 177.343 249.246 179.744 237.194C182.672 222.444 187.768 208.228 193.605 194.114C200.092 178.437 214.958 161.13 228.392 150.872C230.233 149.472 249.818 138.064 249.02 137.113C247.615 136.497 246.408 137.004 245.049 137.325C237.85 139.007 217.901 149.565 211.846 154.207C194.613 167.423 189.417 190.553 183.564 210.354L183.778 200.864C185.889 182.124 188.459 167.563 196.587 150.317C203.358 135.955 213.567 122.523 217.335 106.77C218.193 106.197 226.55 110.451 228.613 110.88C233.669 111.934 254.919 111.695 257.279 106.606C258.685 103.577 253.076 106.415 252.044 106.614C243.302 108.287 234.238 108.991 225.522 106.688C229.634 104.652 234.227 103.99 238.38 101.716C244.907 98.1468 258.529 86.529 262.717 80.4091C264.205 78.2341 269.591 71.4776 264.939 70.5729C262.536 76.2896 257.867 81.7256 252.762 85.2331C254.099 78.3269 255.13 68.6654 253.606 61.7978C253.286 60.3484 254.164 59.6802 251.832 59.6219C250.365 69.2819 252.712 80.0235 247.214 88.8104C244.164 93.6808 236.971 95.2459 232.314 98.1394C232.419 95.544 235.728 94.037 237.266 91.9272C241.962 85.4696 246.609 73.7117 243.652 66.0585C240.84 65.135 242.695 68.4733 242.582 69.0039C241.745 72.9529 241.095 78.4596 239.819 82.0338L239.869 82.0989ZM120.606 118.079C113.908 108.787 111.339 96.5621 111.251 85.2362C118.211 94.4109 121.083 106.618 120.606 118.079ZM238.728 203.037C241.664 197.252 247.205 190.492 252.564 186.902C253.666 186.163 254.508 185.187 255.973 185.825C257.099 187.627 242.472 202.822 238.72 203.036L238.728 203.037Z" fill="#CB48FF"/>
</g>
<g clip-path="url(#clip1_94_6103)">
<path d="M239.869 82.0989C237.583 88.5041 229.925 96.4238 223.576 99.0676C224.481 96.2146 226.866 94.0936 227.863 91.2782C231.104 82.1217 233.144 54.3771 232.418 44.2611C232.305 42.6921 232.271 41.6122 230.33 41.5096C227.429 56.3464 230.392 75.5809 225.322 89.6759C224.884 90.8829 219.839 100.62 219.043 99.0154C218.772 97.6398 220.439 96.6755 220.55 96.1536L223.682 81.384C224.446 77.7829 222.889 62.8006 222.229 58.3704C221.896 56.1274 220.164 44.9709 218.362 44.4252C216.312 43.8087 217.428 46.6449 217.468 47.2261C217.77 51.2894 219.105 55.3175 219.525 59.3786C220.741 70.9983 221.359 82.9093 218.207 94.3025C215.988 92.2139 216.155 87.8682 215.922 84.9376C215.22 75.9083 215.972 66.5784 216.029 57.5282C213.553 56.3033 213.754 59.2546 213.489 61.0617C212.275 69.3574 214.473 78.5312 213.001 86.8448C209.419 73.3145 208.829 59.1281 209.145 45.17C208.664 44.0955 208.182 43.8388 207.386 44.8062C204.008 48.9073 209.451 92.8727 214.328 99.8243C210.138 101.844 204.629 85.9601 203.792 83.0922C200.55 71.9427 200.26 60.1559 199.759 48.6334C197.565 47.7954 197.907 48.6678 197.54 50.4441C195.506 60.4202 199.783 79.4152 202.962 89.2334C201.699 90.0472 198.469 82.6542 198.021 81.5957C193.319 70.6457 191.867 57.3125 196.669 46.1511L193.928 46.1788C186.947 62.9863 193.418 82.2646 203.228 96.5521C188.116 92.8657 181.249 79.8294 179.898 65.2907C178.2 64.6851 178.494 64.8385 177.696 65.9873C175.519 69.0977 180.671 78.698 181.705 82.4802C181.772 83.1035 180.746 82.9313 180.329 82.6248C176.522 79.836 170.117 63.6346 168.859 58.5959C168.535 57.3 169.923 56.3219 167.307 56.2761C166 63.2977 171.546 75.3631 175.607 81.1962C178.699 85.6421 192.755 99.3577 197.262 102.313C198.754 103.293 200.737 103.968 202.425 104.58C201.691 106.025 197.703 105.379 196.443 105.148C188.277 103.68 184.114 99.3976 178.989 93.2297C177.627 91.5956 173.342 83.9516 172.805 83.7832C170.076 82.9408 172.787 89.4786 173.216 90.2421C180.282 102.684 192.424 111.376 207.16 107.83C210.379 107.049 212.844 104.981 215.996 104.732C211.246 120.313 201.5 133.662 194.368 148.055C172.727 191.74 182.446 249.519 158.552 292.263C157.891 293.449 157.426 294.742 156.063 295.343C157.131 278.609 156.551 262.407 153.821 245.885C153.01 240.968 147.295 220.014 147.559 217.698C147.761 215.932 151.025 212.152 151.932 209.499C157.873 192.244 149.617 176.586 156.152 160.121L153.365 160.066C150.005 165.416 147.841 171.419 146.943 177.71C145.431 188.351 149.587 199.476 146.089 209.714L126.389 137.902C126.372 136.653 126.796 136.28 127.928 136.901C132.404 139.36 136.709 144.599 141.715 146.66C150.028 150.096 161.409 149.646 167.897 143.087C166.011 139.388 165.195 142.76 163.504 143.537C156.09 146.919 146.868 146.572 139.989 142.159L155.851 137.206C160.066 135.027 164.023 132.604 166.713 128.575C167.643 127.19 173.817 115.774 170.669 115.107C168.137 117.406 167.931 121.162 166.189 124.319C161.651 132.564 147.738 139.085 138.458 138.153C136.535 137.963 131.348 137.054 132.581 134.243C135.92 137.351 156.323 130.952 154.071 127.003C151.448 126.601 149.773 129.1 147.399 129.969C143.013 131.584 133.436 133.979 129.758 130.454C148.13 130.851 160.11 115.194 164.62 98.8538C165.408 95.9942 167.902 88.8607 164.11 88.2747C161.882 105.381 151.199 126.621 131.449 126.723C147.091 119.723 154.12 101.19 150.171 84.9733C149.399 81.801 145.851 71.5408 141.556 74.8658C151.354 87.0691 147.408 110.946 134.895 119.946C133.843 120.704 133.448 122.184 131.685 121.328C144.422 106.041 142.076 86.2106 135.954 68.7603C135.279 66.8447 130.606 53.3559 127.58 55.1137L136.45 79.6637C136.327 93.3083 139.686 101.765 133.001 114.736C132.535 115.646 131.96 117.887 130.682 117.489C133.671 109.778 135.787 101.383 134.199 93.1024C133.555 89.7571 128.774 78.7085 125.797 77.5773C119.892 75.3433 124.688 80.1507 125.332 81.269C132.364 93.5311 132.931 106.322 126.064 119.036C125.555 119.983 124.573 122.556 123.316 122.271C124.428 112.654 122.675 102.838 119.177 93.8797C117.65 89.9836 112.649 82.7603 111.926 79.8711C111.044 76.3574 114.196 69.9814 110.178 68.6568L109.559 75.7788C102.693 72.5868 108.894 78.6102 109.171 80.9048C109.823 86.315 107.82 93.9615 110.043 99.8048L116.711 119.052C113.293 121.454 102.452 87.524 104.237 83.7307C102.075 83.9446 102.156 85.2343 102.113 86.9341C101.988 91.5523 105.693 100.564 106.687 105.729C106.859 106.592 108.106 108.338 106.658 108.74C101.474 99.7601 97.9395 88.8758 97.1578 78.5935C95.7206 78.0433 95.7865 80.4751 95.748 81.3849C95.2823 91.8935 103.596 109.509 109.679 118.016C108.057 118.253 104.458 113.5 103.277 111.695C94.5686 98.3866 91.53 78.1363 96.4546 63.056C97.7002 59.239 94.8622 61.0095 93.9199 63.7819C87.1607 83.6995 94.0363 107.281 108.741 121.625C110.051 122.903 110.519 123.484 108.325 122.646C94.2928 117.298 82.9231 98.0256 83.7072 83.2307C83.9278 79.1055 84.7781 77.7951 87.1179 74.6465L82.6047 74.5892C82.566 71.4724 83.4056 68.2419 83.6528 65.2767C83.7558 64.0623 83.6288 62.3902 82.2059 63.6155C79.7997 69.4769 81.1955 74.6357 81.1248 80.4107C81.0629 85.5877 80.1471 88.9201 81.3358 94.4986C84.4472 109.093 101.551 129.135 116.74 131.766C116.617 132.948 114.442 132.878 113.457 133.024C90.1543 136.599 78.8392 105.585 77.2067 87.0604C73.0817 85.8584 75.7207 95.053 76.1149 97.1363C79.3727 114.125 90.8668 137.995 111.534 135.834C114.378 135.537 116.309 134.056 118.973 134.048C107.325 145.739 93.9287 143.953 84.2665 130.769L79.5872 122.969C77.9586 128.077 82.5218 133.126 85.8738 136.473C96.5988 147.173 106.035 147.538 117.949 138.794C119.143 137.92 122.224 133.374 123.314 134.96C122.939 143.37 126.668 151.068 128.73 158.786C136.381 187.495 154.914 249.471 152.107 276.889C152.009 277.868 152.226 280.186 150.731 279.651C148.658 262.732 138.356 247.895 131.878 232.378C124.759 215.344 120.822 197.957 120.069 179.4L117.965 177.409C117.106 201.686 121.81 227.88 130.169 250.722C139.428 276.045 153.719 289.556 146.862 319.233C146.429 321.105 145.125 322.882 144.632 325.123C143.85 328.638 143.443 334.842 147.842 331.112C149.336 326.166 150.479 319.918 152.491 315.228C157.986 302.432 175.082 294.059 185.338 285.118C198.872 273.318 209.712 258.965 219.06 243.677L216.817 241.956C210.812 254.335 200.36 264.971 189.715 273.43C181.638 279.852 171.689 284.477 165.18 292.714L163.542 291.912C169.025 280.586 177.981 270.66 186.252 261.179C200.417 244.95 216.312 230.242 230.463 213.991C232.594 212.298 232.579 216.867 233.253 218.146C238.242 227.739 245.703 230.821 256.034 226.841C257.36 226.331 266.064 222.051 262.762 219.923C262.259 219.598 261.471 222.158 260.521 222.82C251.169 229.345 237.465 226.775 234.36 214.809C236.251 215.019 236.672 216.935 238.24 217.895C251.277 225.877 266.031 215.863 274.54 205.778C276.204 203.804 280.844 199.189 277.92 197.724C273.533 206.156 258.952 218.697 249.218 218.66C245.714 218.644 238.819 217.309 237.327 213.629C249.407 216.355 268.388 209.164 275.067 198.537C278.124 193.677 281.605 186.134 283.317 180.717C280.528 180.798 280.35 187.423 279 187.963L277.052 186.778L275.535 187.674C277.209 192.892 269.56 201.668 265.55 204.635C261.541 207.603 251.399 210.86 246.676 210.167C245.689 210.022 245.111 210.135 245.571 209.033C261.442 205.755 273.786 190.139 275.559 174.536L268.15 190.189C265.469 194.52 258.397 201.6 253.903 203.983C253.094 204.411 251.68 205.893 251.11 204.3C256.026 200.57 262.531 195.605 266.268 190.753C266.972 189.83 269.904 186.462 267.789 185.595C263.665 192.228 257.55 198.185 250.712 201.934C253.317 197.278 260.199 193.02 262.555 188.466C263.352 186.936 262.41 187.09 261.168 186.909C258.199 191.778 246.593 204.26 241.339 205.382C240.919 205.474 239.867 205.297 240.142 204.683C244.553 202.137 248.452 198.791 251.758 194.902C254.699 191.445 258.118 183.935 259.942 182.149C260.779 181.327 262.468 181.422 263.386 180.562L261.185 178.641L262.853 174.55C259.918 175.364 259.824 179.107 257.846 181.232C254.635 184.678 245.885 187.758 242.851 192.723L234.852 204.006C234.568 191.975 239.787 180.393 251.598 176.244C250.569 173.772 249.198 174.663 247.316 175.4C238.837 178.701 233.593 188.56 232.646 197.185C231.334 196.815 231.761 192.916 231.927 192.006C233.314 184.392 239.01 179.001 242.298 172.281L256.937 159.679C254.291 158.664 252.054 160.898 250.06 162.329C238.444 170.655 227.792 185.366 230.177 200.297C222.943 190.491 229.663 171.783 240.746 167.598C239.682 164.864 237.06 166.299 235.328 167.313C224.021 173.968 220.054 194.087 228.398 204.446C219.365 199.476 217.63 188.419 218.464 179.089C218.756 175.869 220.113 172.639 220.356 169.61C220.492 167.984 220.949 168.272 218.89 167.953L215.85 182.288C214.87 186.907 217.455 197.772 220.948 201.439L227.651 207.923C221.183 208.388 217.705 198.952 214.967 197.08C213.538 196.105 213.18 197.747 213.38 198.862C213.986 202.39 221.512 207.694 224.581 209.545C223.116 210.925 222.412 210.303 220.89 209.771C214.241 207.443 206.633 197.513 206.963 190.302C207.066 188.06 209.691 183.391 206.519 183.482C202.191 194.98 208.09 203.966 217.082 210.672C210.302 213.334 203.65 206.696 200.477 201.261C197.62 203.936 202.951 208.621 205.171 210.191C213.554 216.123 217.78 212.993 226.634 212.68C227.915 212.633 227.702 211.925 227.33 213.764L189.603 252.492C191.353 244.282 198.663 238.052 201.175 229.977C202.31 226.336 202.831 222.466 202.694 218.656L200.199 217.526C200.421 227.835 190.492 235.019 187.34 244.395C185.787 249.019 185.842 253.43 185.071 258.093L171.187 273.091C174.947 261.445 177.343 249.246 179.744 237.194C182.672 222.444 187.768 208.228 193.605 194.114C200.092 178.437 214.958 161.13 228.392 150.872C230.233 149.472 249.818 138.064 249.02 137.113C247.615 136.497 246.408 137.004 245.049 137.325C237.85 139.007 217.901 149.565 211.846 154.207C194.613 167.423 189.417 190.553 183.564 210.354L183.778 200.864C185.889 182.124 188.459 167.563 196.587 150.317C203.358 135.955 213.567 122.523 217.335 106.77C218.193 106.197 226.55 110.451 228.613 110.88C233.669 111.934 254.919 111.695 257.279 106.606C258.685 103.577 253.076 106.415 252.044 106.614C243.302 108.287 234.238 108.991 225.522 106.688C229.634 104.652 234.227 103.99 238.38 101.716C244.907 98.1468 258.529 86.529 262.717 80.4091C264.205 78.2341 269.591 71.4776 264.939 70.5729C262.536 76.2896 257.867 81.7256 252.762 85.2331C254.099 78.3269 255.13 68.6654 253.606 61.7978C253.286 60.3484 254.164 59.6802 251.832 59.6219C250.365 69.2819 252.712 80.0235 247.214 88.8104C244.164 93.6808 236.971 95.2459 232.314 98.1394C232.419 95.544 235.728 94.037 237.266 91.9272C241.962 85.4696 246.609 73.7117 243.652 66.0585C240.84 65.135 242.695 68.4733 242.582 69.0039C241.745 72.9529 241.095 78.4596 239.819 82.0338L239.869 82.0989ZM120.606 118.079C113.908 108.787 111.339 96.5621 111.251 85.2363C118.211 94.4109 121.083 106.618 120.606 118.079ZM238.728 203.037C241.664 197.252 247.205 190.492 252.564 186.902C253.666 186.163 254.509 185.187 255.973 185.825C257.099 187.627 242.472 202.822 238.72 203.036L238.728 203.037Z" fill="#CB48FF"/>
</g>
</g>
<defs>
<filter id="filter0_gn_94_6103" x="0" y="0" width="316.851" height="361.453" filterUnits="userSpaceOnUse" color-interpolation-filters="sRGB">
<feFlood flood-opacity="0" result="BackgroundImageFix"/>
<feBlend mode="normal" in="SourceGraphic" in2="BackgroundImageFix" result="shape"/>
<feTurbulence type="fractalNoise" baseFrequency="1.1111111640930176 1.1111111640930176" numOctaves="3" seed="6510" />
<feDisplacementMap in="shape" scale="15" xChannelSelector="R" yChannelSelector="G" result="displacedImage" width="100%" height="100%" />
<feMerge result="effect1_texture_94_6103">
<feMergeNode in="displacedImage"/>
</feMerge>
<feTurbulence type="fractalNoise" baseFrequency="3.3333332538604736 3.3333332538604736" stitchTiles="stitch" numOctaves="3" result="noise" seed="669" />
<feColorMatrix in="noise" type="luminanceToAlpha" result="alphaNoise" />
<feComponentTransfer in="alphaNoise" result="coloredNoise1">
<feFuncA type="discrete" tableValues="0 0 0 0 1 1 1 1 1 1 1 1 1 1 1 1 1 1 1 1 1 1 1 1 1 1 1 1 1 1 1 1 1 1 1 1 1 1 1 1 1 1 1 1 1 0 0 0 0 0 0 0 0 0 0 0 0 0 0 0 0 0 0 0 0 0 0 0 0 0 0 0 0 0 0 0 0 0 0 0 0 0 0 0 0 0 0 0 0 0 0 0 0 0 0 0 0 0 0 0 "/>
</feComponentTransfer>
<feComposite operator="in" in2="effect1_texture_94_6103" in="coloredNoise1" result="noise1Clipped" />
<feFlood flood-color="#FEFCFF" result="color1Flood" />
<feComposite operator="in" in2="noise1Clipped" in="color1Flood" result="color1" />
<feMerge result="effect2_noise_94_6103">
<feMergeNode in="effect1_texture_94_6103" />
<feMergeNode in="color1" />
</feMerge>
</filter>
<clipPath id="clip0_94_6103">
<rect width="222.869" height="302.104" fill="white" transform="matrix(-0.978244 -0.207456 -0.207456 0.978244 309.351 58.213)"/>
</clipPath>
<clipPath id="clip1_94_6103">
<rect width="223.118" height="218.735" fill="white" transform="matrix(-0.978244 -0.207456 -0.207456 0.978244 309.351 58.213)"/>
</clipPath>
</defs>
</svg>
