<svg style="" width="24.000000" height="24.062500" version="1.1" xmlns="http://www.w3.org/2000/svg">
<path d="M12.000000 5.843750 C11.145829 5.843750 10.343754 5.999998 9.593750 6.312500 C8.843746 6.645835 8.192711 7.088539 7.640625 7.640625 C7.088539 8.192711 6.645835 8.843746 6.312500 9.593750 C5.999998 10.343754 5.843750 11.145829 5.843750 12.000000 C5.843750 12.854171 5.999998 13.656246 6.312500 14.406250 C6.645835 15.156254 7.088539 15.807289 7.640625 16.359375 C8.192711 16.911461 8.843746 17.354165 9.593750 17.687500 C10.343754 18.000002 11.145829 18.156250 12.000000 18.156250 L12.000000 18.156250 C12.854171 18.156250 13.656246 18.000002 14.406250 17.687500 C15.156254 17.354165 15.807289 16.911461 16.359375 16.359375 C16.911461 15.807289 17.354165 15.156254 17.687500 14.406250 C18.000002 13.656246 18.156250 12.854171 18.156250 12.000000 C18.156250 11.145829 18.000002 10.343754 17.687500 9.593750 C17.354165 8.843746 16.911461 8.192711 16.359375 7.640625 C15.807289 7.088539 15.156254 6.645835 14.406250 6.312500 C13.656246 5.999998 12.854171 5.843750 12.000000 5.843750 L12.000000 5.843750 Z M12.000000 16.000000 C10.895828 16.000000 9.953129 15.609379 9.171875 14.828125 C8.390621 14.046871 8.000000 13.104172 8.000000 12.000000 C8.000000 10.895828 8.390621 9.953129 9.171875 9.171875 C9.953129 8.390621 10.895828 8.000000 12.000000 8.000000 L12.000000 8.000000 C13.104172 8.000000 14.046871 8.390621 14.828125 9.171875 C15.609379 9.953129 16.000000 10.895828 16.000000 12.000000 C16.000000 13.104172 15.609379 14.046871 14.828125 14.828125 C14.046871 15.609379 13.104172 16.000000 12.000000 16.000000 L12.000000 16.000000 Z M19.843750 5.593750 C19.843750 6.010419 19.703126 6.354165 19.421875 6.625000 C19.140624 6.895835 18.802085 7.031250 18.406250 7.031250 C18.010415 7.031250 17.671876 6.895835 17.390625 6.625000 C17.109374 6.354165 16.968750 6.010419 16.968750 5.593750 C16.968750 5.197915 17.109374 4.864585 17.390625 4.593750 C17.671876 4.322915 18.010415 4.187500 18.406250 4.187500 C18.802085 4.187500 19.140624 4.322915 19.421875 4.593750 C19.703126 4.864585 19.843750 5.197915 19.843750 5.593750 Z M23.375000 4.156250 C23.062498 3.343746 22.604170 2.635420 22.000000 2.031250 C21.395830 1.427080 20.697921 0.968752 19.906250 0.656250 L19.875000 0.625000 C19.437498 0.458333 18.973961 0.328125 18.484375 0.234375 C17.994789 0.140625 17.489586 0.093750 16.968750 0.093750 L16.937500 0.093750 C16.312497 0.052083 15.739586 0.026042 15.218750 0.015625 C14.697914 0.005208 13.625008 -0.000000 12.000000 -0.000000 C10.374992 -0.000000 9.302086 0.005208 8.781250 0.015625 C8.260414 0.026042 7.687503 0.052083 7.062500 0.093750 C6.541664 0.093750 6.031252 0.145833 5.531250 0.250000 C5.031247 0.354167 4.552086 0.489583 4.093750 0.656250 L4.156250 0.625000 C3.343746 0.958335 2.635420 1.427080 2.031250 2.031250 C1.427080 2.635420 0.968752 3.322913 0.656250 4.093750 L0.625000 4.156250 C0.458333 4.572919 0.328125 5.031247 0.234375 5.531250 C0.140625 6.031253 0.083333 6.541664 0.062500 7.062500 L0.062500 7.062500 C0.041667 7.708337 0.026042 8.286456 0.015625 8.796875 C0.005208 9.307294 0.000000 10.374992 0.000000 12.000000 C0.000000 13.625008 0.005208 14.697914 0.015625 15.218750 C0.026042 15.739586 0.041667 16.322913 0.062500 16.968750 C0.083333 17.468753 0.140625 17.958331 0.234375 18.437500 C0.328125 18.916669 0.458333 19.395831 0.625000 19.875000 C0.958335 20.687504 1.427080 21.395830 2.031250 22.000000 C2.635420 22.604170 3.322913 23.062498 4.093750 23.375000 L4.156250 23.375000 C4.572919 23.562501 5.026039 23.708333 5.515625 23.812500 C6.005211 23.916667 6.510414 23.968750 7.031250 23.968750 L7.062500 23.968750 C7.708337 24.010417 8.286456 24.036458 8.796875 24.046875 C9.307294 24.057292 10.374992 24.062500 12.000000 24.062500 C13.625008 24.062500 14.697914 24.057292 15.218750 24.046875 C15.739586 24.036458 16.322913 24.010417 16.968750 23.968750 C17.489586 23.968750 17.999997 23.916667 18.500000 23.812500 C19.000003 23.708333 19.479164 23.572917 19.937500 23.406250 L19.875000 23.437500 C20.687504 23.104165 21.395830 22.635420 22.000000 22.031250 C22.604170 21.427080 23.062498 20.739587 23.375000 19.968750 L23.375000 19.906250 C23.562501 19.447914 23.703125 18.973961 23.796875 18.484375 C23.890625 17.994789 23.937500 17.500003 23.937500 17.000000 C23.958333 16.354163 23.973958 15.776044 23.984375 15.265625 C23.994792 14.755206 24.000000 13.687508 24.000000 12.062500 C24.000000 10.416658 24.000000 9.338544 24.000000 8.828125 C24.000000 8.317706 23.979167 7.739587 23.937500 7.093750 C23.937500 6.572914 23.885417 6.057294 23.781250 5.546875 C23.677083 5.036456 23.531251 4.552086 23.343750 4.093750 L23.375000 4.156250 Z M21.750000 16.843750 C21.750000 17.260419 21.713542 17.661456 21.640625 18.046875 C21.567708 18.432294 21.458334 18.802082 21.312500 19.156250 L21.343750 19.093750 C21.135416 19.635419 20.833335 20.098956 20.437500 20.484375 C20.041665 20.869794 19.593753 21.166666 19.093750 21.375000 L19.062500 21.375000 C18.729165 21.520834 18.375002 21.625000 18.000000 21.687500 C17.624998 21.750000 17.239585 21.791667 16.843750 21.812500 L16.843750 21.812500 C16.197913 21.833333 15.630211 21.848958 15.140625 21.859375 C14.651039 21.869792 13.593758 21.875000 11.968750 21.875000 C10.343742 21.875000 9.286461 21.869792 8.796875 21.859375 C8.307289 21.848958 7.739587 21.833333 7.093750 21.812500 C6.677081 21.791667 6.281252 21.744792 5.906250 21.671875 C5.531248 21.598958 5.166668 21.500001 4.812500 21.375000 L4.843750 21.375000 C4.322914 21.187499 3.864585 20.895835 3.468750 20.500000 C3.072915 20.104165 2.770834 19.645836 2.562500 19.125000 L2.562500 19.093750 C2.437499 18.781248 2.338542 18.437502 2.265625 18.062500 C2.192708 17.687498 2.156250 17.291669 2.156250 16.875000 L2.156250 16.875000 C2.114583 16.249997 2.093750 15.687502 2.093750 15.187500 C2.093750 14.687497 2.093750 13.625008 2.093750 12.000000 C2.093750 10.374992 2.093750 9.317711 2.093750 8.828125 C2.093750 8.338539 2.114583 7.770837 2.156250 7.125000 C2.156250 6.729165 2.192708 6.338544 2.265625 5.953125 C2.338542 5.567706 2.447916 5.197918 2.593750 4.843750 L2.562500 4.875000 C2.770834 4.354164 3.072915 3.895835 3.468750 3.500000 C3.864585 3.104165 4.322914 2.802084 4.843750 2.593750 C5.177085 2.468749 5.531248 2.369792 5.906250 2.296875 C6.281252 2.223958 6.677081 2.187500 7.093750 2.187500 L7.093750 2.187500 C7.718753 2.166667 8.281248 2.151042 8.781250 2.140625 C9.281253 2.130208 10.343742 2.125000 11.968750 2.125000 C13.593758 2.125000 14.651039 2.125000 15.140625 2.125000 C15.630211 2.125000 16.197913 2.145833 16.843750 2.187500 C17.239585 2.187500 17.624998 2.223958 18.000000 2.296875 C18.375002 2.369792 18.739582 2.479166 19.093750 2.625000 L19.062500 2.593750 C19.583336 2.802084 20.041665 3.104165 20.437500 3.500000 C20.833335 3.895835 21.135416 4.354164 21.343750 4.875000 L21.343750 4.875000 C21.468751 5.208335 21.567708 5.562498 21.640625 5.937500 C21.713542 6.312502 21.750000 6.697915 21.750000 7.093750 L21.750000 7.125000 C21.770833 7.750003 21.786458 8.312497 21.796875 8.812500 C21.807292 9.312503 21.812500 10.374992 21.812500 12.000000 C21.812500 13.625008 21.812500 14.682289 21.812500 15.171875 C21.812500 15.661461 21.802083 16.218747 21.781250 16.843750 L21.750000 16.843750 Z M28.000000 26.000000" style="fill:black"/>
</svg>