<?xml version="1.0" encoding="UTF-8"?>
<svg id="Calque_1" xmlns="http://www.w3.org/2000/svg" version="1.1" viewBox="0 0 24 24.06">
  <!-- Generator: Adobe Illustrator 29.8.3, SVG Export Plug-In . SVG Version: 2.1.1 Build 3)  -->
  <defs>
    <style>
      .st0 {
        fill: #fff;
      }
    </style>
  </defs>
  <path class="st0" d="M12,5.84c-.85,0-1.66.16-2.41.47-.75.33-1.4.78-1.95,1.33s-.99,1.2-1.33,1.95c-.31.75-.47,1.55-.47,2.41s.16,1.66.47,2.41c.33.75.78,1.4,1.33,1.95s1.2.99,1.95,1.33c.75.31,1.55.47,2.41.47h0c.85,0,1.66-.16,2.41-.47.75-.33,1.4-.78,1.95-1.33s.99-1.2,1.33-1.95c.31-.75.47-1.55.47-2.41s-.16-1.66-.47-2.41c-.33-.75-.78-1.4-1.33-1.95s-1.2-.99-1.95-1.33c-.75-.31-1.55-.47-2.41-.47h0ZM12,16c-1.1,0-2.05-.39-2.83-1.17s-1.17-1.72-1.17-2.83.39-2.05,1.17-2.83,1.72-1.17,2.83-1.17h0c1.1,0,2.05.39,2.83,1.17s1.17,1.72,1.17,2.83-.39,2.05-1.17,2.83-1.72,1.17-2.83,1.17h0ZM19.84,5.59c0,.42-.14.76-.42,1.03s-.62.41-1.02.41-.73-.14-1.02-.41-.42-.61-.42-1.03.14-.73.42-1,.62-.41,1.02-.41.73.14,1.02.41.42.6.42,1ZM23.38,4.16c-.31-.81-.77-1.52-1.38-2.12-.6-.6-1.3-1.06-2.09-1.38l-.03-.03c-.44-.17-.9-.3-1.39-.39s-.99-.14-1.52-.14h-.03c-.63-.04-1.2-.07-1.72-.08C14.7,0,13.63,0,12,0s-2.7,0-3.22.02c-.52.01-1.09.04-1.72.08-.52,0-1.03.05-1.53.16-.5.1-.98.24-1.44.41l.06-.03c-.81.33-1.52.8-2.12,1.41-.6.6-1.06,1.29-1.38,2.06l-.03.06c-.17.42-.3.87-.39,1.38s-.15,1.01-.17,1.53H.06c-.02.65-.04,1.22-.05,1.73-.01.51-.02,1.58-.02,3.2s0,2.7.02,3.22c.01.52.03,1.1.05,1.75.02.5.08.99.17,1.47s.22.96.39,1.44c.33.81.8,1.52,1.41,2.12.6.6,1.29,1.06,2.06,1.38h.06c.42.19.87.33,1.36.44s.99.16,1.52.16h.03c.65.04,1.22.07,1.73.08s1.58.02,3.2.02,2.7,0,3.22-.02,1.1-.04,1.75-.08c.52,0,1.03-.05,1.53-.16s.98-.24,1.44-.41l-.06.03c.81-.33,1.52-.8,2.12-1.41s1.06-1.29,1.38-2.06v-.06c.19-.46.33-.93.42-1.42s.14-.98.14-1.48c.02-.65.04-1.22.05-1.73s.02-1.58.02-3.2v-3.23c0-.51-.02-1.09-.06-1.73,0-.52-.05-1.04-.16-1.55s-.25-.99-.44-1.45l.03.06ZM21.75,16.84c0,.42-.04.82-.11,1.2s-.18.76-.33,1.11l.03-.06c-.21.54-.51,1.01-.91,1.39s-.84.68-1.34.89h-.03c-.33.15-.69.25-1.06.31s-.76.1-1.16.12h0c-.65.02-1.21.04-1.7.05s-1.55.02-3.17.02-2.68,0-3.17-.02-1.06-.03-1.7-.05c-.42-.02-.81-.07-1.19-.14s-.74-.17-1.09-.3h.03c-.52-.19-.98-.48-1.38-.88s-.7-.85-.91-1.38v-.03c-.13-.31-.22-.66-.3-1.03s-.11-.77-.11-1.19h0c-.04-.63-.06-1.19-.06-1.69v-6.36c0-.49.02-1.06.06-1.7,0-.4.04-.79.11-1.17s.18-.76.33-1.11l-.03.03c.21-.52.51-.98.91-1.38s.85-.7,1.38-.91c.33-.13.69-.22,1.06-.3s.77-.11,1.19-.11h0c.63-.02,1.19-.04,1.69-.05.5-.01,1.56-.02,3.19-.02h3.17c.49,0,1.06.02,1.7.06.4,0,.78.04,1.16.11s.74.18,1.09.33l-.03-.03c.52.21.98.51,1.38.91s.7.85.91,1.38h0c.13.33.22.69.3,1.06s.11.76.11,1.16v.03c.02.63.04,1.19.05,1.69s.02,1.56.02,3.19v3.17c0,.49-.01,1.05-.03,1.67h-.03Z"/>
</svg>