<svg style="" width="26.687500" height="18.687500" version="1.1" xmlns="http://www.w3.org/2000/svg">
<path d="M26.125000 2.937500 C25.979166 2.374997 25.697919 1.885419 25.281250 1.468750 C24.864581 1.052081 24.375003 0.760417 23.812500 0.593750 L23.781250 0.593750 C23.260414 0.447916 22.427089 0.333334 21.281250 0.250000 C20.114577 0.187500 18.947923 0.135417 17.781250 0.093750 C16.614577 0.052083 15.583338 0.031250 14.687500 0.031250 C13.791662 0.010417 13.343750 -0.000000 13.343750 -0.000000 C13.343750 -0.000000 12.895838 0.010417 12.000000 0.031250 C11.104162 0.031250 10.072923 0.046875 8.906250 0.078125 C7.739577 0.109375 6.572922 0.156250 5.406250 0.218750 C4.260411 0.302084 3.427086 0.416666 2.906250 0.562500 C2.322914 0.729167 1.822919 1.020831 1.406250 1.437500 C0.989581 1.854169 0.708334 2.343747 0.562500 2.906250 L0.562500 2.906250 C0.270832 3.968755 0.104167 5.307284 0.062500 6.921875 C0.020833 8.536466 0.000000 9.343750 0.000000 9.343750 C0.000000 9.343750 0.020833 10.156242 0.062500 11.781250 C0.104167 13.406258 0.260415 14.729162 0.531250 15.750000 C0.677084 16.333336 0.963540 16.833331 1.390625 17.250000 C1.817710 17.666669 2.312497 17.958333 2.875000 18.125000 C3.416669 18.250001 4.260411 18.354166 5.406250 18.437500 C6.552089 18.520834 7.713536 18.583333 8.890625 18.625000 C10.067714 18.666667 11.104162 18.687500 12.000000 18.687500 C12.875004 18.687500 13.312500 18.687500 13.312500 18.687500 C13.312500 18.687500 13.760412 18.687500 14.656250 18.687500 C15.552088 18.687500 16.588536 18.671875 17.765625 18.640625 C18.942714 18.609375 20.104161 18.552084 21.250000 18.468750 C22.395839 18.406250 23.229164 18.302084 23.750000 18.156250 C24.333336 17.989583 24.833331 17.697919 25.250000 17.281250 C25.666669 16.864581 25.958333 16.385419 26.125000 15.843750 L26.125000 15.812500 C26.395835 14.770828 26.557291 13.437508 26.609375 11.812500 C26.661459 10.187492 26.687500 9.375000 26.687500 9.375000 C26.687500 9.375000 26.666667 8.562508 26.625000 6.937500 C26.583333 5.312492 26.416668 3.979172 26.125000 2.937500 Z M10.656250 13.343750 L10.687500 5.343750 L17.625000 9.343750 L10.656250 13.343750 Z M29.343750 23.343750" style="fill:black"/>
</svg>