<?xml version="1.0" encoding="UTF-8"?>
<svg id="Calque_1" xmlns="http://www.w3.org/2000/svg" version="1.1" viewBox="0 0 26.69 18.69">
  <!-- Generator: Adobe Illustrator 29.8.3, SVG Export Plug-In . SVG Version: 2.1.1 Build 3)  -->
  <defs>
    <style>
      .st0 {
        fill: #fff;
      }
    </style>
  </defs>
  <path class="st0" d="M26.12,2.94c-.15-.56-.43-1.05-.84-1.47s-.91-.71-1.47-.88h-.03c-.52-.15-1.35-.26-2.5-.34-1.17-.06-2.33-.11-3.5-.16s-2.2-.06-3.09-.06C13.79.01,13.34,0,13.34,0,13.34,0,12.9.01,12,.03c-.9,0-1.93.02-3.09.05-1.17.03-2.33.08-3.5.14-1.15.08-1.98.2-2.5.34-.58.17-1.08.46-1.5.88s-.7.91-.84,1.47h0C.27,3.97.1,5.31.06,6.92c-.04,1.61-.06,2.42-.06,2.42,0,0,.02.81.06,2.44s.2,2.95.47,3.97c.15.58.43,1.08.86,1.5.43.42.92.71,1.48.88.54.13,1.39.23,2.53.31s2.31.15,3.48.19c1.18.04,2.21.06,3.11.06h2.66c.9,0,1.93-.02,3.11-.05s2.34-.09,3.48-.17c1.15-.06,1.98-.17,2.5-.31.58-.17,1.08-.46,1.5-.88s.71-.9.88-1.44v-.03c.27-1.04.43-2.37.48-4s.08-2.44.08-2.44c0,0-.02-.81-.06-2.44-.04-1.63-.21-2.96-.5-4ZM10.66,13.34l.03-8,6.94,4-6.97,4Z"/>
</svg>